<svg version="1.1" xmlns="http://www.w3.org/2000/svg" xmlns:xlink="http://www.w3.org/1999/xlink" height="614.4pt" width="614.4pt">
    <path d="M0 0h24v24h-24z" fill="none"/>
    <path d="m 384,648.232 c 0,-168.00033 0,-336.00067 0,-504.001 -52.34528,52.83493 -105.71006,104.69822 -157.37244,158.18411 -58.55791,65.68545 -68.82443,169.6394 -20.46468,243.92188 C 243.43674,607.14046 312.06859,648.59512 384,648.232 Z M 581.358,242.099 c 81.80771,79.22587 105.85821,210.69207 56.02786,313.37155 C 589.78953,660.7317 472.11366,728.29486 357.12295,715.44248 237.22123,705.84183 131.19902,610.00295 109.8036,491.601 90.053027,396.87573 126.29005,295.24301 197.76442,230.97639 259.84295,168.89793 321.92147,106.81946 384,44.741 c 65.786,65.786 131.572,131.572 197.358,197.358 z"></path>
</svg>
