<?xml version="1.0" encoding="UTF-8" standalone="no"?>
<svg xmlns:dc="http://purl.org/dc/elements/1.1/" xmlns:cc="http://creativecommons.org/ns#" xmlns:rdf="http://www.w3.org/1999/02/22-rdf-syntax-ns#" xmlns:svg="http://www.w3.org/2000/svg" xmlns="http://www.w3.org/2000/svg" id="svg4264" viewBox="0 0 512 512" height="512" width="512" version="1.1">
    <defs id="defs4271" />
    <g style="display:inline" id="layer2">
        <g id="g4835">
            <g style="" id="icomoon-ignore" />
            <path d="m 260.60419,432.0403 c 0,-109.447 0,-218.894 0,-328.34101 -34.10132,34.42032 -68.86682,68.20765 -102.52325,103.05205 -38.14866,42.79203 -44.83698,110.5148 -13.33211,158.90753 24.28276,39.61157 68.99428,66.61799 115.85536,66.38143 z M 389.1768,167.45726 c 53.29519,51.6132 68.96334,137.25934 36.50045,204.15184 C 394.66968,440.18347 318.00751,484.19877 243.09463,475.82584 164.98238,469.57132 95.912205,407.13526 81.97375,330.00007 69.106867,268.2895 92.714165,202.07893 139.2775,160.21123 179.71973,119.76904 220.16196,79.32684 260.60419,38.884649 303.46173,81.74219 346.31927,124.59972 389.1768,167.45726 Z" id="path4214" />
        </g>
    </g>
</svg>
