<?xml version="1.0" encoding="utf-8"?>
<!-- Generated by IcoMoon.io -->
<!DOCTYPE svg PUBLIC "-//W3C//DTD SVG 1.1//EN" "http://www.w3.org/Graphics/SVG/1.1/DTD/svg11.dtd">
<svg version="1.1" xmlns="http://www.w3.org/2000/svg" xmlns:xlink="http://www.w3.org/1999/xlink" width="1135" height="1024" viewBox="0 0 1135 1024">
<g id="icomoon-ignore">
</g>
<path d="M503.627 667.187c-2.848-52.282 4.945-106.634-6.797-157.524-7.035-32.92-78.033-10.97-69.741-29.5 48.046-49.163 96.091-98.326 144.137-147.488 49.429 52.019 99.149 103.759 148.844 155.523-30.326-0.092-70.723-4.685-82.198 31.057-3.545 83.015-1.403 167.53-2.763 251.121-4.907 13.676 10.229 47.511-9.469 46.31-40.403 0-80.806 0-121.209 0-0.268-49.833-0.535-99.666-0.803-149.498z"></path>
<path d="M690.506 0.054c-98.896-1.714-201.291 36.116-265.127 113.776-41.543 45.548-109.697 18.12-162.3 37.234-56.095 17.589-107.23 76.673-119.455 127.157-19.574 62.569-84.794 96.459-110.798 156.154-65.546 120.296-29.682 284.987 83.776 363.346 65.929 43.86 147.392 69.822 227.038 63.282 29.721-7.902 27.627-50.618 16.245-71.616-39.752-38.629-102.249-12.655-150.69-29.499-47.512-26.44-90.134-68.091-116.728-115.491-14.868-48.47-11.872-102.184-3.249-151.623 32.971-74.546 125.84-113.891 136.917-200.051 4.76-61.634 77.751-68.029 125.649-62.072 51.345 11.227 101.924-8.707 126.918-55.516 47.412-59.685 122.197-94.126 198.386-90.497 106.69 0.402 222.081 72.668 231.644 186.219-1.766 81.928 69.919 132.362 118.335 187.876 33.609 40.151 23.955 97.023 24.421 145.55-0.055 63.262-56.371 102.425-98.594 140.738-48.657 36.17-115.049 10.719-167.568 32.837-20.1 17.67-23.567 55.522-7.692 77.125 26.39 18.351 62.359 3.196 91.558 1.298 122.278-20.425 242.671-108.255 261.861-236.918 16.617-97.609-18.165-200.549-90.465-268.27-42.245-33.645-47.469-86.762-57.485-135.364-45.099-109.419-144.584-207.843-268.077-214.401-8.154-0.713-16.334-1.134-24.518-1.274z"></path>
<path d="M570.732 259.014c-26.498 2.925-38.744 31.88-58.071 47.147-61.974 65.988-127.451 129.223-187.722 196.572-12.833 24.051 13.501 48.113 37.496 42.449 27.46 0.769 54.935 1.132 82.377 2.44 3.741 102.128-1.088 204.763 2.625 306.726 11.101 30.937 49.048 17.676 73.78 20.477 50.47-0.857 101.278 1.723 151.536-1.299 30.939-11.099 17.679-49.046 20.479-73.778 0.487-84.035-1.338-168.127 1.643-252.114 35.928-4.602 74.102 2.848 108.994-6.669 23.141-12.833 14.893-44.055-4.23-56.348-70.974-73.332-140.891-147.815-212.518-220.435-4.778-3.32-10.569-5.146-16.387-5.167z"></path>
<path d="M443.272 534.089l0.997 2.301v0.014l-0.997-2.315z"></path>
<path d="M810.524 828.817v0z"></path>
<path d="M367.65 933.885c-27.257-0.361-32.168 30.114-29.070 51.191-5.405 24.425 17.647 44.625 41.339 38.924 133.482-0.39 267.061 0.775 400.482-0.58 30.557-6.845 23.040-43.139 22.714-66.243-7.232-31.699-44.727-21.946-68.364-23.292-122.367 0-244.734 0-367.1 0z"></path>
</svg>
